<?xml version="1.0" standalone="no"?>
<svg
  width="600"
  height="600"
  viewBox="0 0 600 600"
  xmlns="http://www.w3.org/2000/svg"
>
  <g transform="translate(300,300)">
    <path d="M48.6,-102.9C66.2,-64.3,85.8,-56.2,101,-40.9C116.2,-25.5,126.9,-2.9,145.1,36.2C163.3,75.2,189,130.6,169.7,139.9C150.5,149.3,86.4,112.5,37,127.7C-12.3,143,-46.9,210.1,-71.9,215.9C-96.9,221.8,-112.3,166.2,-108.6,121.4C-104.9,76.6,-82.2,42.6,-99.1,6.7C-116,-29.2,-172.6,-66.9,-179.6,-94.6C-186.5,-122.2,-143.8,-139.8,-105.6,-169C-67.4,-198.2,-33.7,-239.1,-9.1,-224.9C15.5,-210.8,31,-141.6,48.6,-102.9Z" fill="#FFB4BC" />
  </g>
</svg>
  