<?xml version="1.0" standalone="no"?>
<svg
  width="600"
  height="600"
  viewBox="0 0 600 600"
  xmlns="http://www.w3.org/2000/svg"
>
  <g transform="translate(300,300)">
    <path d="M33.3,-17C58.4,-18.6,104.5,-22.6,105.1,-18.6C105.6,-14.7,60.6,-2.9,45.5,29C30.3,60.8,45.1,112.6,39.7,118.8C34.3,125,8.8,85.5,-17.1,67.3C-42.9,49,-69.1,52,-72.4,43.3C-75.7,34.5,-56,14.1,-45.2,-1.1C-34.4,-16.3,-32.3,-26.1,-26.2,-27.9C-20.1,-29.7,-10.1,-23.3,-3,-19.8C4.1,-16.2,8.1,-15.4,33.3,-17Z" fill="#FFB4BC" />
  </g>
</svg>
  