<svg viewBox="0 0 600 600" xmlns="http://www.w3.org/2000/svg" xmlns:xlink="http://www.w3.org/1999/xlink"><filter id="a" color-interpolation-filters="sRGB"><feGaussianBlur in="SourceGraphic" result="blur" stdDeviation="8"/><feColorMatrix in="blur" mode="matrix" result="cm" values="1 0 0 0 0  0 1 0 0 0  0 0 1 0 0  0 0 0 21 -9"/><feBlend/></filter><linearGradient id="b"><stop offset=".01020408" stop-color="#ff9c12"/><stop offset=".1922" stop-color="#fa9712"/><stop offset=".3992" stop-color="#ed8a14"/><stop offset=".6186" stop-color="#d67316"/><stop offset=".8449" stop-color="#b65419"/><stop offset="1" stop-color="#9c3a1c"/></linearGradient><radialGradient id="c" cx="291.9382" cy="167.4587" gradientUnits="userSpaceOnUse" r="41.0767" xlink:href="#b"/><radialGradient id="d" cx="284.5" cy="421.5" gradientTransform="matrix(-.02802637 -.9996 5.9976 -.1682 -2235.533 776.7669)" gradientUnits="userSpaceOnUse" r="53.521" xlink:href="#b"/><radialGradient id="e" cx="294" cy="157" gradientUnits="userSpaceOnUse" r="23" xlink:href="#b"/><radialGradient id="f" cx="297" cy="167.5" gradientUnits="userSpaceOnUse" r="37.2156" xlink:href="#b"/><radialGradient id="g" cx="292" cy="171.5" gradientUnits="userSpaceOnUse" r="56.5354" xlink:href="#b"/><radialGradient id="h" cx="306.5" cy="155" gradientUnits="userSpaceOnUse" r="14.109" xlink:href="#b"/><g filter="url(#a)"><path d="m326.2 149.5c-5 19.2-21.4 29.2-37.8 26.6-16.5-2.9-33.4-12.9-37.1-26.6-3.8-13.6 12.5-32.1 37.8-34.9s42.2 15.8 37.1 34.9z" fill="url(#g)"/><path d="m320.5 146.4c-4.4 10.1-16.4 20.2-26.8 25.3-10.4 5.2-22.4-2.9-26.8-15.2-4.4-11.6 7.6-20.4 26.8-25.3s31.2 4.4 26.8 15.2z" fill="url(#f)"/><path d="m278 147.7c2.7-7.1 9.4-15.7 15.4-16.4 5.9-.4 12.6 8.5 15.4 16.9 2.7 8.4-4.2 14.9-15.4 14.2-11.2-.9-18.1-7.6-15.4-14.7z" fill="url(#e)"/><path d="m354 381.2c6.8 3.4 5.4 7.4-5.6 10.4-10.7 3.1-31.1 5.1-54.4 8.4s-43.7.8-54.4-2.4c-11-3.4-12.4-7.6-5.6-13.8 6.8-7 18.9-14.6 29.6-17.4 11-3.3 20.6-1.8 30.4-1.4s19.4 5.1 30.4 8.3c10.7 3.5 22.8 5.3 29.6 7.9z" fill="url(#d)"/><path d="m312.7 147.3c-2.1 16.4-15.3 27.2-23.2 25.3-8.1-1.8-12.6-13-14.8-24.9-1.9-11.8 2.7-22.7 14.8-25.3 12-2.8 25.2 8.4 23.2 24.9z" fill="url(#c)"/><path d="m317.8 147.4c-1 8.2-9.8 10.3-13.8 9.3-4-.9-6.5-3-7.6-8.9-1-5.9 2.3-8.5 8.4-9.8 6-1.4 14 1.1 13 9.4z" fill="url(#h)"/></g></svg>