<?xml version="1.0" standalone="no"?>
<svg
  width="600"
  height="600"
  viewBox="0 0 600 600"
  xmlns="http://www.w3.org/2000/svg"
>
  <g transform="translate(300,300)">
    <path d="M90.5,-71.5C128.2,-76.1,177.4,-58,177.5,-34.7C177.6,-11.3,128.6,17.4,105.3,63.6C82,109.9,84.2,173.8,70.3,167.9C56.4,161.9,26.3,86.1,-1.8,54.4C-29.9,22.7,-56.1,35.1,-61.9,32.3C-67.7,29.4,-53,11.3,-70.3,-33.5C-87.5,-78.3,-136.6,-149.8,-130.2,-150.7C-123.8,-151.6,-61.9,-81.8,-17.8,-60.6C26.4,-39.4,52.7,-66.8,90.5,-71.5Z" fill="#FFB4BC" />
  </g>
</svg>
  