<?xml version="1.0" standalone="no"?>
<svg
  width="600"
  height="600"
  viewBox="0 0 600 600"
  xmlns="http://www.w3.org/2000/svg"
>
  <g transform="translate(300,300)">
    <path d="M124.5,-133.1C169.3,-110.8,219.1,-79.1,219.2,-43.8C219.4,-8.4,169.9,30.5,135.9,68.3C102,106.2,83.7,142.8,54,157.5C24.4,172.3,-16.5,165.1,-66.5,157.7C-116.5,150.4,-175.6,143,-182.9,113.7C-190.3,84.4,-145.9,33.2,-125.9,-12.2C-106,-57.6,-110.5,-97.4,-93.6,-124.6C-76.7,-151.7,-38.4,-166.4,0.7,-167.3C39.9,-168.2,79.7,-155.3,124.5,-133.1Z" fill="#FFB4BC" />
  </g>
</svg>
  