<?xml version="1.0" standalone="no"?>
<svg
  width="600"
  height="600"
  viewBox="0 0 600 600"
  xmlns="http://www.w3.org/2000/svg"
>
  <g transform="translate(300,300)">
    <path d="M83.4,-131.3C108.4,-113.7,129.3,-91.1,163,-61.5C196.7,-31.8,243.4,5,239.5,34.7C235.7,64.5,181.3,87.2,141,107.6C100.7,128,74.4,146.1,51.8,132.7C29.2,119.3,10.2,74.5,-33.4,78.1C-77.1,81.6,-145.5,133.5,-184.6,134.3C-223.8,135.2,-233.6,85.1,-243.3,33.5C-253,-18.1,-262.5,-71.1,-223.5,-79.5C-184.6,-87.9,-97.1,-51.5,-51.8,-59.8C-6.5,-68.1,-3.2,-121,13,-141.2C29.2,-161.4,58.4,-148.9,83.4,-131.3Z" fill="#FFB4BC" />
  </g>
</svg>
  