<?xml version="1.0" standalone="no"?>
<svg
  width="600"
  height="600"
  viewBox="0 0 600 600"
  xmlns="http://www.w3.org/2000/svg"
>
  <g transform="translate(300,300)">
    <path d="M77,-130C99.6,-105.3,117.6,-83.6,137.3,-57.6C157,-31.7,178.5,-1.5,174.8,25.2C171.1,51.9,142.2,75.1,113.6,86.4C85.1,97.8,56.8,97.3,34.4,92.8C12,88.3,-4.4,79.6,-36.7,87.4C-69.1,95.1,-117.3,119.3,-132.1,110.1C-147,100.9,-128.4,58.3,-105.5,32.3C-82.6,6.2,-55.4,-3.3,-57.3,-37.4C-59.2,-71.4,-90.1,-129.9,-85.4,-162.8C-80.7,-195.6,-40.4,-202.8,-6.6,-192.6C27.2,-182.3,54.4,-154.7,77,-130Z" fill="#FFB4BC" />
  </g>
</svg>
  