<?xml version="1.0" standalone="no"?>
<svg
  width="600"
  height="600"
  viewBox="0 0 600 600"
  xmlns="http://www.w3.org/2000/svg"
>
  <g transform="translate(300,300)">
    <path d="M76.4,-107.3C109.6,-63.3,154.3,-49.2,178.8,-15.9C203.3,17.4,207.8,70,188.1,112.8C168.4,155.6,124.5,188.7,86.4,175.9C48.2,163.2,15.7,104.6,-34.4,88.8C-84.5,73,-152.2,100,-189.8,85.2C-227.4,70.4,-234.8,13.9,-222.2,-35.9C-209.5,-85.7,-176.7,-128.6,-136.4,-171.3C-96,-214.1,-48,-256.5,-13.2,-240.8C21.6,-225.1,43.3,-151.2,76.4,-107.3Z" fill="#FFB4BC" />
  </g>
</svg>
  