<svg preserveAspectRatio="none" xmlns="http://www.w3.org/2000/svg" viewBox="0 0 1440 320"><path fill="#000" fill-opacity="1" d="M0,128L30,149.3C60,171,120,213,180,234.7C240,256,300,256,360,224C420,192,480,128,540,117.3C600,107,660,149,720,176C780,203,840,213,900,224C960,235,1020,245,1080,229.3C1140,213,1200,171,1260,176C1320,181,1380,235,1410,261.3L1440,288L1440,0L1410,0C1380,0,1320,0,1260,0C1200,0,1140,0,1080,0C1020,0,960,0,900,0C840,0,780,0,720,0C660,0,600,0,540,0C480,0,420,0,360,0C300,0,240,0,180,0C120,0,60,0,30,0L0,0Z"></path></svg>